<?xml version="1.0" encoding="UTF-8" standalone="no"?>
<!DOCTYPE svg PUBLIC "-//W3C//DTD SVG 1.1//EN" "http://www.w3.org/Graphics/SVG/1.1/DTD/svg11.dtd">
<svg width="100%" height="100%" viewBox="0 0 553 553" version="1.1" xmlns="http://www.w3.org/2000/svg" xmlns:xlink="http://www.w3.org/1999/xlink" xml:space="preserve" xmlns:serif="http://www.serif.com/" style="fill-rule:evenodd;clip-rule:evenodd;stroke-linejoin:round;stroke-miterlimit:2;">
    <g transform="matrix(0.1,0,0,-0.1,0,553)">
        <g transform="matrix(1.112216,0,0,1.203321,-306.535015,-374.683886)">
            <path d="M2185,4895C1667,4813 1210,4567 872,4190C551,3831 370,3443 294,2950C272,2813 269,2461 289,2335C372,1793 582,1368 945,1004C1208,740 1490,565 1830,456C2279,310 2774,321 3215,485C3443,570 3627,673 3822,826C3880,872 3931,910 3935,910C3938,910 4061,788 4208,639C4401,443 4488,361 4523,343C4635,287 4757,306 4846,395C4905,453 4930,515 4930,600C4930,721 4927,725 4602,1052L4307,1348L4353,1422C4423,1534 4533,1772 4573,1895C4717,2346 4727,2793 4604,3250C4589,3302 4576,3348 4574,3352C4571,3356 4492,3275 4397,3172C4302,3070 4201,2960 4172,2928L4118,2870L4129,2748C4175,2234 3950,1673 3560,1332C3330,1131 3041,988 2755,934C2618,908 2355,908 2215,934C1991,975 1739,1081 1561,1208C1454,1283 1278,1447 1282,1465C1285,1476 1428,1637 1625,1850C1664,1891 1807,2048 1945,2199L2194,2472L2245,2418C2272,2388 2399,2252 2525,2115C2652,1979 2775,1845 2800,1817L2846,1767L3105,2050C4231,3279 4698,3786 4706,3783C4709,3782 4786,3709 4876,3620C4967,3531 5043,3459 5045,3462C5050,3467 5076,3624 5141,4055C5230,4644 5252,4801 5247,4806C5243,4810 4919,4738 4500,4640C4431,4624 4285,4590 4175,4565C4065,4539 3974,4517 3972,4515C3970,4514 4047,4438 4142,4347L4314,4181L4240,4103C4198,4060 4088,3942 3994,3840C3657,3475 3083,2852 2965,2722L2845,2591L2780,2663C2744,2702 2599,2860 2456,3013C2202,3285 2197,3290 2177,3273C2159,3257 1871,2945 1695,2751C1657,2708 1508,2546 1365,2390C1222,2234 1076,2074 1042,2036C1007,1997 974,1964 970,1962C958,1957 903,2108 875,2221C803,2518 818,2888 915,3185C953,3303 1080,3551 1157,3660C1243,3782 1428,3966 1550,4052C1733,4181 1945,4275 2164,4322C2302,4352 2637,4355 2775,4327C3081,4265 3368,4115 3595,3898L3702,3796L3759,3856C3790,3888 3875,3980 3949,4060L4083,4204L3989,4294C3662,4604 3289,4797 2855,4882C2720,4908 2318,4916 2185,4895Z" style="fill:rgb(62,54,238);fill-rule:nonzero;"/>
        </g>
        <g transform="matrix(1,0,0,1,32.057788,464.840519)">
            <path d="M2385,4133C2111,4101 1912,4031 1704,3894C1581,3813 1383,3615 1301,3490C1142,3250 1056,2992 1043,2718C1036,2586 1044,2554 1089,2527C1137,2499 1187,2505 1224,2542C1256,2574 1257,2578 1264,2685C1286,3017 1407,3299 1626,3529C1841,3755 2105,3879 2434,3909C2528,3917 2536,3919 2562,3949C2583,3973 2590,3990 2590,4023C2590,4116 2527,4150 2385,4133Z" style="fill:rgb(62,54,238);fill-rule:nonzero;"/>
        </g>
    </g>
</svg>
